# xmcd
#
# Track frame offsets:
#	150
#	14864
#	31107
#	47308
#	64321
#	77820
#	91424
#	108639
#	123191
#	136515
#	155511
#	172183
#	186699
#	199063
#	213278
#	227073
#	243581
#	256094
#	271356
#	285400
#	302008
#	315294
#
# Disc length: 4373 seconds
#
# Revision: 0
# Processed by: cddbd v1.5.2PL0 Copyright (c) Steve Scherf et al.
# Submitted via: EZCDAudioConverter 3.1.7.1
#
DISCID=31111316
DTITLE=Hott Country Volume 243 CAN
DYEAR=2016
DGENRE=country
TTITLE0=Jason Aldean - Lights Come On
TTITLE1=Jason Blaine - Dance With My Daughter
TTITLE2=Chris Janson - Holdin' Her
TTITLE3=Bobby Wills - Down By The River
TTITLE4=Charles Kelley - Lonely Girl
TTITLE5=Dallas Smith - One Little Kiss
TTITLE6=Brett Kissel - Cool With That
TTITLE7=Breaking Southwest - Ghost Town
TTITLE8=Michael Ray - Think A Little Less
TTITLE9=Chris Stapleton - Parachute
TTITLE10=Jason Benoit - Waves
TTITLE11=Trailer Choir - Ice Cold Summer
TTITLE12=Blake Shelton - Savior's Shadow
TTITLE13=Runaway Angel - June
TTITLE14=Parmalee - Roots
TTITLE15=David James - Lonely Girl
TTITLE16=Blackjack Billy - Tread
TTITLE17=Jordan McIntosh - Steal Your Heart
TTITLE18=Tristan Horncastle - On My Way Girl
TTITLE19=Easton Corbin - Are You With Me
TTITLE20=Andrew Hyatt - Me and a Girl and a Radio
TTITLE21=Me And Mae - Feel Good Feelin'
EXTD=
EXTT0=
EXTT1=
EXTT2=
EXTT3=
EXTT4=
EXTT5=
EXTT6=
EXTT7=
EXTT8=
EXTT9=
EXTT10=
EXTT11=
EXTT12=
EXTT13=
EXTT14=
EXTT15=
EXTT16=
EXTT17=
EXTT18=
EXTT19=
EXTT20=
EXTT21=
PLAYORDER=
